<svg xmlns="http://www.w3.org/2000/svg">
    <g style="transform-origin: 350px 62px; transform: scale(0.575);">
        <g transform="translate(350,62)">
            <g transform="translate(0,0)">
                <g class="path"
                    style="transform: scale(0.91); transform-origin: -492.015px -5.20158px; animation: 1s linear -0.634615s infinite normal forwards running breath-b8130eac-556b-46db-9341-c0382ec22985;">
                    <path
                        d="M73.67-50.23L68.79-49.30L56.56 1.29L50.70 1.29L37.34-43.05L24.26 1.29L18.48 1.29L5.43-49.30L0.78-50.23L0.78-53.67L19.10-53.67L19.10-50.23L14.34-49.77L14.34-49.77Q13.91-49.69 13.67-49.36L13.67-49.36L13.67-49.36Q13.44-49.02 13.44-48.59L13.44-48.59L13.44-48.59Q13.44-48.48 13.46-48.38L13.46-48.38L13.46-48.38Q13.48-48.28 13.52-48.16L13.52-48.16L23.05-12.07L35.59-53.67L41.76-53.67L54.65-10.78L63.52-48.16L63.52-48.16Q63.55-48.24 63.55-48.44L63.55-48.44L63.55-48.44Q63.55-48.91 63.24-49.30L63.24-49.30L63.24-49.30Q62.93-49.69 62.38-49.77L62.38-49.77L57.34-50.23L57.34-53.67L73.67-53.67L73.67-50.23"
                        fill="#51cacc" stroke="none" stroke-width="none"
                        transform="translate(-529.2399654388428,20.988417601952175)" style="fill: rgb(81, 202, 204);">
                    </path>
                </g>
                <g class="path"
                    style="transform: scale(0.91); transform-origin: -435.135px 1.71342px; animation: 1s linear -0.609231s infinite normal forwards running breath-b8130eac-556b-46db-9341-c0382ec22985;">
                    <path
                        d="M110.98-8.87L110.98-3.98L110.98-3.98Q109.30-2.93 107.48-2.03L107.48-2.03L107.48-2.03Q105.66-1.13 103.73-0.47L103.73-0.47L103.73-0.47Q101.80 0.20 99.80 0.59L99.80 0.59L99.80 0.59Q97.81 0.98 95.78 0.98L95.78 0.98L95.78 0.98Q92.15 0.98 88.79-0.25L88.79-0.25L88.79-0.25Q85.43-1.48 82.87-3.95L82.87-3.95L82.87-3.95Q80.31-6.41 78.77-10.14L78.77-10.14L78.77-10.14Q77.23-13.87 77.23-18.87L77.23-18.87L77.23-18.87Q77.23-23.55 78.63-27.36L78.63-27.36L78.63-27.36Q80.04-31.17 82.54-33.89L82.54-33.89L82.54-33.89Q85.04-36.60 88.48-38.07L88.48-38.07L88.48-38.07Q91.91-39.53 96.02-39.53L96.02-39.53L96.02-39.53Q99.73-39.53 102.54-38.30L102.54-38.30L102.54-38.30Q105.35-37.07 107.23-34.90L107.23-34.90L107.23-34.90Q109.10-32.73 110.04-29.71L110.04-29.71L110.04-29.71Q110.98-26.68 110.98-23.13L110.98-23.13L110.98-22.07L110.98-22.07Q110.98-21.45 110.90-20.90L110.90-20.90L84.96-20.90L84.96-20.90Q84.96-17.85 85.61-14.80L85.61-14.80L85.61-14.80Q86.25-11.76 87.77-9.34L87.77-9.34L87.77-9.34Q89.30-6.91 91.88-5.41L91.88-5.41L91.88-5.41Q94.45-3.91 98.32-3.91L98.32-3.91L98.32-3.91Q100.04-3.91 101.72-4.36L101.72-4.36L101.72-4.36Q103.40-4.80 105.02-5.51L105.02-5.51L105.02-5.51Q106.64-6.21 108.13-7.09L108.13-7.09L108.13-7.09Q109.61-7.97 110.98-8.87L110.98-8.87zM102.97-24.49L102.97-26.25L102.97-26.25Q102.97-28.24 102.50-29.94L102.50-29.94L102.50-29.94Q102.03-31.64 101.07-32.89L101.07-32.89L101.07-32.89Q100.12-34.14 98.65-34.86L98.65-34.86L98.65-34.86Q97.19-35.59 95.20-35.59L95.20-35.59L95.20-35.59Q93.20-35.59 91.48-34.82L91.48-34.82L91.48-34.82Q89.77-34.06 88.46-32.62L88.46-32.62L88.46-32.62Q87.15-31.17 86.35-29.12L86.35-29.12L86.35-29.12Q85.55-27.07 85.39-24.49L85.39-24.49L102.97-24.49"
                        fill="#51cacc" stroke="none" stroke-width="none"
                        transform="translate(-529.2399654388428,20.988417601952175)" style="fill: rgb(157, 248, 113);">
                    </path>
                </g>
                <g class="path"
                    style="transform: scale(0.91); transform-origin: -403.695px -8.48658px; animation: 1s linear -0.583846s infinite normal forwards running breath-b8130eac-556b-46db-9341-c0382ec22985;">
                    <path
                        d="M135.31 0L115.86 0L115.86-3.13L120.12-3.36L120.12-3.36Q120.66-3.36 121.27-3.93L121.27-3.93L121.27-3.93Q121.88-4.49 121.88-5.04L121.88-5.04L121.88-53.20L115.78-53.20L115.78-55.86L126.02-58.95L129.30-58.95L129.30-5.04L129.30-5.04Q129.30-4.49 129.86-3.93L129.86-3.93L129.86-3.93Q130.43-3.36 130.98-3.36L130.98-3.36L135.31-3.13L135.31 0"
                        fill="#51cacc" stroke="none" stroke-width="none"
                        transform="translate(-529.2399654388428,20.988417601952175)" style="fill: rgb(224, 255, 119);">
                    </path>
                </g>
                <g class="path"
                    style="transform: scale(0.91); transform-origin: -373.125px 1.71342px; animation: 1s linear -0.558462s infinite normal forwards running breath-b8130eac-556b-46db-9341-c0382ec22985;">
                    <path
                        d="M172.03-7.54L172.03-2.97L172.03-2.97Q170.66-2.27 169.16-1.54L169.16-1.54L169.16-1.54Q167.66-0.82 165.96-0.27L165.96-0.27L165.96-0.27Q164.26 0.27 162.40 0.63L162.40 0.63L162.40 0.63Q160.55 0.98 158.52 0.98L158.52 0.98L158.52 0.98Q154.30 0.98 150.92-0.53L150.92-0.53L150.92-0.53Q147.54-2.03 145.16-4.71L145.16-4.71L145.16-4.71Q142.77-7.38 141.48-11.05L141.48-11.05L141.48-11.05Q140.20-14.73 140.20-19.02L140.20-19.02L140.20-19.02Q140.20-24.06 141.76-27.89L141.76-27.89L141.76-27.89Q143.32-31.72 145.98-34.32L145.98-34.32L145.98-34.32Q148.63-36.91 152.13-38.22L152.13-38.22L152.13-38.22Q155.63-39.53 159.45-39.53L159.45-39.53L159.45-39.53Q162.07-39.53 164.36-39.00L164.36-39.00L164.36-39.00Q166.64-38.48 168.30-37.46L168.30-37.46L168.30-37.46Q169.96-36.45 170.92-34.96L170.92-34.96L170.92-34.96Q171.88-33.48 171.88-31.52L171.88-31.52L171.88-31.52Q171.88-30.35 171.46-29.47L171.46-29.47L171.46-29.47Q171.05-28.59 170.39-27.99L170.39-27.99L170.39-27.99Q169.73-27.38 168.89-27.09L168.89-27.09L168.89-27.09Q168.05-26.80 167.15-26.80L167.15-26.80L167.15-26.80Q165.82-26.80 164.84-27.25L164.84-27.25L164.84-27.25Q163.87-27.70 163.13-28.16L163.13-28.16L163.13-35.12L163.13-35.12Q162.30-35.59 161.43-35.88L161.43-35.88L161.43-35.88Q160.55-36.17 159.77-36.17L159.77-36.17L159.77-36.17Q157.11-36.17 154.98-34.96L154.98-34.96L154.98-34.96Q152.85-33.75 151.39-31.60L151.39-31.60L151.39-31.60Q149.92-29.45 149.14-26.50L149.14-26.50L149.14-26.50Q148.36-23.55 148.36-20.08L148.36-20.08L148.36-20.08Q148.36-16.76 149.20-13.83L149.20-13.83L149.20-13.83Q150.04-10.90 151.70-8.73L151.70-8.73L151.70-8.73Q153.36-6.56 155.84-5.31L155.84-5.31L155.84-5.31Q158.32-4.06 161.60-4.06L161.60-4.06L161.60-4.06Q164.41-4.06 166.93-4.94L166.93-4.94L166.93-4.94Q169.45-5.82 172.03-7.54L172.03-7.54"
                        fill="#51cacc" stroke="none" stroke-width="none"
                        transform="translate(-529.2399654388428,20.988417601952175)" style="fill: rgb(222, 157, 214);">
                    </path>
                </g>
                <g class="path"
                    style="transform: scale(0.91); transform-origin: -332.755px 1.71342px; animation: 1s linear -0.533077s infinite normal forwards running breath-b8130eac-556b-46db-9341-c0382ec22985;">
                    <path
                        d="M215.51-19.22L215.51-19.22L215.51-19.22Q215.51-14.96 214.16-11.27L214.16-11.27L214.16-11.27Q212.81-7.58 210.33-4.86L210.33-4.86L210.33-4.86Q207.85-2.15 204.32-0.59L204.32-0.59L204.32-0.59Q200.78 0.98 196.41 0.98L196.41 0.98L196.41 0.98Q192.03 0.98 188.52-0.57L188.52-0.57L188.52-0.57Q185-2.11 182.54-4.80L182.54-4.80L182.54-4.80Q180.08-7.50 178.77-11.19L178.77-11.19L178.77-11.19Q177.46-14.88 177.46-19.22L177.46-19.22L177.46-19.22Q177.46-23.48 178.79-27.19L178.79-27.19L178.79-27.19Q180.12-30.90 182.62-33.65L182.62-33.65L182.62-33.65Q185.12-36.41 188.65-37.97L188.65-37.97L188.65-37.97Q192.19-39.53 196.64-39.53L196.64-39.53L196.64-39.53Q201.09-39.53 204.61-37.93L204.61-37.93L204.61-37.93Q208.13-36.33 210.55-33.57L210.55-33.57L210.55-33.57Q212.97-30.82 214.24-27.13L214.24-27.13L214.24-27.13Q215.51-23.44 215.51-19.22zM207.19-19.30L207.19-19.30L207.19-19.30Q207.19-22.58 206.54-25.59L206.54-25.59L206.54-25.59Q205.90-28.59 204.57-30.90L204.57-30.90L204.57-30.90Q203.24-33.20 201.25-34.57L201.25-34.57L201.25-34.57Q199.26-35.94 196.56-35.94L196.56-35.94L196.56-35.94Q193.79-35.94 191.76-34.57L191.76-34.57L191.76-34.57Q189.73-33.20 188.42-30.90L188.42-30.90L188.42-30.90Q187.11-28.59 186.48-25.59L186.48-25.59L186.48-25.59Q185.86-22.58 185.86-19.30L185.86-19.30L185.86-19.30Q185.86-16.05 186.50-13.05L186.50-13.05L186.50-13.05Q187.15-10.04 188.48-7.73L188.48-7.73L188.48-7.73Q189.80-5.43 191.80-4.04L191.80-4.04L191.80-4.04Q193.79-2.66 196.48-2.66L196.48-2.66L196.48-2.66Q199.22-2.66 201.25-4.02L201.25-4.02L201.25-4.02Q203.28-5.39 204.59-7.70L204.59-7.70L204.59-7.70Q205.90-10 206.54-13.01L206.54-13.01L206.54-13.01Q207.19-16.02 207.19-19.30"
                        fill="#51cacc" stroke="none" stroke-width="none"
                        transform="translate(-529.2399654388428,20.988417601952175)" style="fill: rgb(255, 112, 142);">
                    </path>
                </g>
                <g class="path"
                    style="transform: scale(0.91); transform-origin: -277.075px 1.22342px; animation: 1s linear -0.507692s infinite normal forwards running breath-b8130eac-556b-46db-9341-c0382ec22985;">
                    <path
                        d="M284.49 0L266.56 0L266.56-3.13L269.92-3.36L269.92-3.36Q270.66-3.44 271.13-3.91L271.13-3.91L271.13-3.91Q271.60-4.38 271.60-5.12L271.60-5.12L271.60-25.51L271.60-25.51Q271.60-27.38 271.25-28.89L271.25-28.89L271.25-28.89Q270.90-30.39 270.06-31.45L270.06-31.45L270.06-31.45Q269.22-32.50 267.85-33.09L267.85-33.09L267.85-33.09Q266.48-33.67 264.49-33.67L264.49-33.67L264.49-33.67Q263.48-33.67 262.36-33.50L262.36-33.50L262.36-33.50Q261.25-33.32 260.14-33.03L260.14-33.03L260.14-33.03Q259.02-32.73 257.95-32.32L257.95-32.32L257.95-32.32Q256.88-31.91 255.94-31.45L255.94-31.45L255.94-5.12L255.94-5.12Q255.94-4.38 256.41-3.91L256.41-3.91L256.41-3.91Q256.88-3.44 257.62-3.36L257.62-3.36L260.98-3.13L260.98 0L243.44 0L243.44-3.13L246.80-3.36L246.80-3.36Q247.54-3.44 248.01-3.91L248.01-3.91L248.01-3.91Q248.48-4.38 248.48-5.12L248.48-5.12L248.48-26.02L248.48-26.02Q248.48-27.70 248.11-29.12L248.11-29.12L248.11-29.12Q247.73-30.55 246.89-31.54L246.89-31.54L246.89-31.54Q246.05-32.54 244.71-33.11L244.71-33.11L244.71-33.11Q243.36-33.67 241.45-33.67L241.45-33.67L241.45-33.67Q240.31-33.67 239.08-33.46L239.08-33.46L239.08-33.46Q237.85-33.24 236.72-32.91L236.72-32.91L236.72-32.91Q235.59-32.58 234.59-32.17L234.59-32.17L234.59-32.17Q233.59-31.76 232.89-31.37L232.89-31.37L232.89-5.12L232.89-5.12Q232.89-4.38 233.36-3.91L233.36-3.91L233.36-3.91Q233.83-3.44 234.57-3.36L234.57-3.36L237.93-3.13L237.93 0L219.84 0L219.84-3.13L223.75-3.36L223.75-3.36Q224.49-3.44 224.96-3.91L224.96-3.91L224.96-3.91Q225.43-4.38 225.43-5.12L225.43-5.12L225.43-32.89L219.92-32.89L219.92-35.51L229.61-38.55L232.89-38.55L232.89-34.57L232.89-34.57Q234.22-35.39 235.84-36.25L235.84-36.25L235.84-36.25Q237.46-37.11 239.18-37.85L239.18-37.85L239.18-37.85Q240.90-38.59 242.64-39.06L242.64-39.06L242.64-39.06Q244.38-39.53 245.94-39.53L245.94-39.53L245.94-39.53Q247.66-39.53 249.06-39.04L249.06-39.04L249.06-39.04Q250.47-38.55 251.54-37.75L251.54-37.75L251.54-37.75Q252.62-36.95 253.42-35.96L253.42-35.96L253.42-35.96Q254.22-34.96 254.73-33.98L254.73-33.98L254.73-33.98Q255.94-34.73 257.66-35.70L257.66-35.70L257.66-35.70Q259.38-36.68 261.29-37.52L261.29-37.52L261.29-37.52Q263.20-38.36 265.12-38.95L265.12-38.95L265.12-38.95Q267.03-39.53 268.63-39.53L268.63-39.53L268.63-39.53Q271.80-39.53 273.79-38.38L273.79-38.38L273.79-38.38Q275.78-37.23 276.93-35.45L276.93-35.45L276.93-35.45Q278.09-33.67 278.52-31.48L278.52-31.48L278.52-31.48Q278.95-29.30 278.95-27.27L278.95-27.27L278.95-5.12L278.95-5.12Q278.95-4.38 279.43-3.91L279.43-3.91L279.43-3.91Q279.92-3.44 280.63-3.36L280.63-3.36L284.49-3.13L284.49 0"
                        fill="#51cacc" stroke="none" stroke-width="none"
                        transform="translate(-529.2399654388428,20.988417601952175)" style="fill: rgb(81, 202, 204);">
                    </path>
                </g>
                <g class="path"
                    style="transform: scale(0.91); transform-origin: -223.385px 1.71342px; animation: 1s linear -0.482308s infinite normal forwards running breath-b8130eac-556b-46db-9341-c0382ec22985;">
                    <path
                        d="M322.73-8.87L322.73-3.98L322.73-3.98Q321.05-2.93 319.24-2.03L319.24-2.03L319.24-2.03Q317.42-1.13 315.49-0.47L315.49-0.47L315.49-0.47Q313.55 0.20 311.56 0.59L311.56 0.59L311.56 0.59Q309.57 0.98 307.54 0.98L307.54 0.98L307.54 0.98Q303.91 0.98 300.55-0.25L300.55-0.25L300.55-0.25Q297.19-1.48 294.63-3.95L294.63-3.95L294.63-3.95Q292.07-6.41 290.53-10.14L290.53-10.14L290.53-10.14Q288.98-13.87 288.98-18.87L288.98-18.87L288.98-18.87Q288.98-23.55 290.39-27.36L290.39-27.36L290.39-27.36Q291.80-31.17 294.30-33.89L294.30-33.89L294.30-33.89Q296.80-36.60 300.23-38.07L300.23-38.07L300.23-38.07Q303.67-39.53 307.77-39.53L307.77-39.53L307.77-39.53Q311.48-39.53 314.30-38.30L314.30-38.30L314.30-38.30Q317.11-37.07 318.98-34.90L318.98-34.90L318.98-34.90Q320.86-32.73 321.80-29.71L321.80-29.71L321.80-29.71Q322.73-26.68 322.73-23.13L322.73-23.13L322.73-22.07L322.73-22.07Q322.73-21.45 322.66-20.90L322.66-20.90L296.72-20.90L296.72-20.90Q296.72-17.85 297.36-14.80L297.36-14.80L297.36-14.80Q298.01-11.76 299.53-9.34L299.53-9.34L299.53-9.34Q301.05-6.91 303.63-5.41L303.63-5.41L303.63-5.41Q306.21-3.91 310.08-3.91L310.08-3.91L310.08-3.91Q311.80-3.91 313.48-4.36L313.48-4.36L313.48-4.36Q315.16-4.80 316.78-5.51L316.78-5.51L316.78-5.51Q318.40-6.21 319.88-7.09L319.88-7.09L319.88-7.09Q321.37-7.97 322.73-8.87L322.73-8.87zM314.73-24.49L314.73-26.25L314.73-26.25Q314.73-28.24 314.26-29.94L314.26-29.94L314.26-29.94Q313.79-31.64 312.83-32.89L312.83-32.89L312.83-32.89Q311.88-34.14 310.41-34.86L310.41-34.86L310.41-34.86Q308.95-35.59 306.95-35.59L306.95-35.59L306.95-35.59Q304.96-35.59 303.24-34.82L303.24-34.82L303.24-34.82Q301.52-34.06 300.21-32.62L300.21-32.62L300.21-32.62Q298.91-31.17 298.11-29.12L298.11-29.12L298.11-29.12Q297.30-27.07 297.15-24.49L297.15-24.49L314.73-24.49"
                        fill="#51cacc" stroke="none" stroke-width="none"
                        transform="translate(-529.2399654388428,20.988417601952175)" style="fill: rgb(157, 248, 113);">
                    </path>
                </g>
                <g class="path"
                    style="transform: scale(0.91); transform-origin: -154.555px -5.84658px; animation: 1s linear -0.456923s infinite normal forwards running breath-b8130eac-556b-46db-9341-c0382ec22985;">
                    <path
                        d="M385.23 0L364.14 0L364.14-3.44L368.91-3.75L368.91-3.75Q369.77-3.83 370.18-4.38L370.18-4.38L370.18-4.38Q370.59-4.92 370.59-5.51L370.59-5.51L370.59-48.16L370.59-48.16Q370.59-48.75 370.18-49.26L370.18-49.26L370.18-49.26Q369.77-49.77 368.91-49.84L368.91-49.84L364.14-50.16L364.14-53.67L385.23-53.67L385.23-50.16L380.35-49.84L380.35-49.84Q379.53-49.77 379.10-49.26L379.10-49.26L379.10-49.26Q378.67-48.75 378.67-48.16L378.67-48.16L378.67-5.51L378.67-5.51Q378.67-4.92 379.10-4.38L379.10-4.38L379.10-4.38Q379.53-3.83 380.35-3.75L380.35-3.75L385.23-3.44L385.23 0"
                        fill="#51cacc" stroke="none" stroke-width="none"
                        transform="translate(-529.2399654388428,20.988417601952175)" style="fill: rgb(224, 255, 119);">
                    </path>
                </g>
                <g class="path"
                    style="transform: scale(0.91); transform-origin: -118.675px 1.22342px; animation: 1s linear -0.431538s infinite normal forwards running breath-b8130eac-556b-46db-9341-c0382ec22985;">
                    <path
                        d="M431.64 0L413.98 0L413.98-3.13L417.34-3.36L417.34-3.36Q418.05-3.44 418.54-3.91L418.54-3.91L418.54-3.91Q419.02-4.38 419.02-5.12L419.02-5.12L419.02-25.94L419.02-25.94Q419.02-29.73 417.27-31.70L417.27-31.70L417.27-31.70Q415.51-33.67 411.33-33.67L411.33-33.67L411.33-33.67Q409.02-33.67 406.80-33.03L406.80-33.03L406.80-33.03Q404.57-32.38 402.54-31.37L402.54-31.37L402.54-5.12L402.54-5.12Q402.54-4.38 403.01-3.91L403.01-3.91L403.01-3.91Q403.48-3.44 404.22-3.36L404.22-3.36L407.58-3.13L407.58 0L389.49 0L389.49-3.13L393.40-3.36L393.40-3.36Q394.14-3.44 394.61-3.91L394.61-3.91L394.61-3.91Q395.08-4.38 395.08-5.12L395.08-5.12L395.08-32.89L389.49-32.89L389.49-35.51L399.26-38.55L402.54-38.55L402.54-34.57L402.54-34.57Q404.22-35.51 405.96-36.41L405.96-36.41L405.96-36.41Q407.70-37.30 409.41-38.01L409.41-38.01L409.41-38.01Q411.13-38.71 412.73-39.12L412.73-39.12L412.73-39.12Q414.34-39.53 415.74-39.53L415.74-39.53L415.74-39.53Q420.98-39.53 423.71-36.29L423.71-36.29L423.71-36.29Q426.45-33.05 426.45-27.19L426.45-27.19L426.45-5.12L426.45-5.12Q426.45-4.38 426.93-3.91L426.93-3.91L426.93-3.91Q427.42-3.44 428.13-3.36L428.13-3.36L431.64-3.13L431.64 0"
                        fill="#51cacc" stroke="none" stroke-width="none"
                        transform="translate(-529.2399654388428,20.988417601952175)" style="fill: rgb(222, 157, 214);">
                    </path>
                </g>
                <g class="path"
                    style="transform: scale(0.91); transform-origin: -33.03px -6.49158px; animation: 1s linear -0.406154s infinite normal forwards running breath-b8130eac-556b-46db-9341-c0382ec22985;">
                    <path
                        d="M522.77 0L503.75 0L503.75-3.44L508.36-3.83L508.36-3.83Q508.67-3.83 508.95-4.24L508.95-4.24L508.95-4.24Q509.22-4.65 509.22-5L509.22-5L509.22-5Q509.22-5.16 509.18-5.20L509.18-5.20L503.67-19.84L485.20-19.84L479.88-5.43L479.88-5.43Q479.84-5.35 479.84-5.20L479.84-5.20L479.84-5.20Q479.84-4.73 480.25-4.28L480.25-4.28L480.25-4.28Q480.66-3.83 481.02-3.83L481.02-3.83L485.74-3.44L485.74 0L469.65 0L469.65-3.44L474.30-4.41L492.93-54.96L498.95-54.96L517.50-5.59L517.50-5.59Q517.77-4.77 518.03-4.49L518.03-4.49L518.03-4.49Q518.28-4.22 519.18-4.06L519.18-4.06L522.77-3.44L522.77 0zM502.23-23.67L494.38-44.65L486.60-23.67L502.23-23.67"
                        fill="#51cacc" stroke="none" stroke-width="none"
                        transform="translate(-529.2399654388428,20.988417601952175)" style="fill: rgb(255, 112, 142);">
                    </path>
                </g>
                <g class="path"
                    style="transform: scale(0.91); transform-origin: 5.76001px -8.48658px; animation: 1s linear -0.380769s infinite normal forwards running breath-b8130eac-556b-46db-9341-c0382ec22985;">
                    <path
                        d="M544.77 0L525.31 0L525.31-3.13L529.57-3.36L529.57-3.36Q530.12-3.36 530.72-3.93L530.72-3.93L530.72-3.93Q531.33-4.49 531.33-5.04L531.33-5.04L531.33-53.20L525.23-53.20L525.23-55.86L535.47-58.95L538.75-58.95L538.75-5.04L538.75-5.04Q538.75-4.49 539.32-3.93L539.32-3.93L539.32-3.93Q539.88-3.36 540.43-3.36L540.43-3.36L544.77-3.13L544.77 0"
                        fill="#51cacc" stroke="none" stroke-width="none"
                        transform="translate(-529.2399654388428,20.988417601952175)" style="fill: rgb(81, 202, 204);">
                    </path>
                </g>
                <g class="path"
                    style="transform: scale(0.91); transform-origin: 32.325px 2.62842px; animation: 1s linear -0.355385s infinite normal forwards running breath-b8130eac-556b-46db-9341-c0382ec22985;">
                    <path d="M571.41-15.43L551.72-15.43L551.72-21.29L571.41-21.29L571.41-15.43" fill="#51cacc"
                        stroke="none" stroke-width="none" transform="translate(-529.2399654388428,20.988417601952175)"
                        style="fill: rgb(157, 248, 113);"></path>
                </g>
                <g class="path"
                    style="transform: scale(0.91); transform-origin: 70.975px -5.84658px; animation: 1s linear -0.33s infinite normal forwards running breath-b8130eac-556b-46db-9341-c0382ec22985;">
                    <path
                        d="M621.56-15.86L621.56-15.86L621.56-15.86Q621.56-12.62 620.64-10.18L620.64-10.18L620.64-10.18Q619.73-7.73 618.16-5.98L618.16-5.98L618.16-5.98Q616.60-4.22 614.55-3.07L614.55-3.07L614.55-3.07Q612.50-1.91 610.25-1.23L610.25-1.23L610.25-1.23Q608.01-0.55 605.68-0.27L605.68-0.27L605.68-0.27Q603.36 0 601.25 0L601.25 0L578.87 0L578.87-3.44L583.09-3.75L583.09-3.75Q583.95-3.83 584.36-4.38L584.36-4.38L584.36-4.38Q584.77-4.92 584.77-5.51L584.77-5.51L584.77-48.16L584.77-48.16Q584.77-48.75 584.36-49.30L584.36-49.30L584.36-49.30Q583.95-49.84 583.09-49.92L583.09-49.92L578.87-50.23L578.87-53.67L600.27-53.67L600.27-53.67Q605.04-53.67 608.46-52.79L608.46-52.79L608.46-52.79Q611.88-51.91 614.06-50.23L614.06-50.23L614.06-50.23Q616.25-48.55 617.27-46.17L617.27-46.17L617.27-46.17Q618.28-43.79 618.28-40.78L618.28-40.78L618.28-40.78Q618.28-37.77 617.15-35.66L617.15-35.66L617.15-35.66Q616.02-33.55 614.30-32.11L614.30-32.11L614.30-32.11Q612.58-30.66 610.55-29.80L610.55-29.80L610.55-29.80Q608.52-28.95 606.76-28.48L606.76-28.48L606.76-28.48Q609.45-28.48 612.09-27.83L612.09-27.83L612.09-27.83Q614.73-27.19 616.84-25.70L616.84-25.70L616.84-25.70Q618.95-24.22 620.25-21.80L620.25-21.80L620.25-21.80Q621.56-19.38 621.56-15.86zM612.85-15.20L612.85-15.20L612.85-15.20Q612.85-20.66 609.61-23.20L609.61-23.20L609.61-23.20Q606.37-25.74 599.96-25.74L599.96-25.74L599.96-25.74Q598.98-25.74 597.79-25.66L597.79-25.66L597.79-25.66Q596.60-25.59 595.55-25.51L595.55-25.51L595.55-25.51Q594.49-25.43 593.71-25.35L593.71-25.35L593.71-25.35Q592.93-25.27 592.77-25.27L592.77-25.27L592.77-4.14L592.77-4.14Q593.75-4.06 594.69-4.02L594.69-4.02L594.69-4.02Q595.47-3.95 596.31-3.93L596.31-3.93L596.31-3.93Q597.15-3.91 597.73-3.91L597.73-3.91L597.73-3.91Q601.95-3.91 604.82-4.61L604.82-4.61L604.82-4.61Q607.70-5.31 609.49-6.72L609.49-6.72L609.49-6.72Q611.29-8.13 612.07-10.23L612.07-10.23L612.07-10.23Q612.85-12.34 612.85-15.20zM609.65-40.23L609.65-40.23L609.65-40.23Q609.65-44.96 606.60-47.48L606.60-47.48L606.60-47.48Q603.55-50 597.34-50L597.34-50L597.34-50Q596.72-50 596.00-49.96L596.00-49.96L596.00-49.96Q595.27-49.92 594.63-49.88L594.63-49.88L594.63-49.88Q593.98-49.84 593.48-49.80L593.48-49.80L593.48-49.80Q592.97-49.77 592.77-49.77L592.77-49.77L592.77-29.53L592.77-29.53Q593.32-29.49 593.87-29.49L593.87-29.49L593.87-29.49Q594.34-29.45 594.80-29.45L594.80-29.45L595.66-29.45L595.66-29.45Q599.57-29.45 602.25-30.18L602.25-30.18L602.25-30.18Q604.92-30.90 606.56-32.27L606.56-32.27L606.56-32.27Q608.20-33.63 608.93-35.64L608.93-35.64L608.93-35.64Q609.65-37.66 609.65-40.23"
                        fill="#51cacc" stroke="none" stroke-width="none"
                        transform="translate(-529.2399654388428,20.988417601952175)" style="fill: rgb(224, 255, 119);">
                    </path>
                </g>
                <g class="path"
                    style="transform: scale(0.91); transform-origin: 116.5px 1.71342px; animation: 1s linear -0.304615s infinite normal forwards running breath-b8130eac-556b-46db-9341-c0382ec22985;">
                    <path
                        d="M664.06 0L652.23 0L651.17-4.73L651.17-4.73Q649.06-3.13 646.84-1.88L646.84-1.88L646.84-1.88Q645.86-1.33 644.77-0.82L644.77-0.82L644.77-0.82Q643.67-0.31 642.52 0.10L642.52 0.10L642.52 0.10Q641.37 0.51 640.18 0.74L640.18 0.74L640.18 0.74Q638.98 0.98 637.81 0.98L637.81 0.98L637.81 0.98Q635.63 0.98 633.73 0.23L633.73 0.23L633.73 0.23Q631.84-0.51 630.43-1.91L630.43-1.91L630.43-1.91Q629.02-3.32 628.22-5.31L628.22-5.31L628.22-5.31Q627.42-7.30 627.42-9.84L627.42-9.84L627.42-9.84Q627.42-11.33 627.71-12.66L627.71-12.66L627.71-12.66Q628.01-13.98 628.91-15.23L628.91-15.23L628.91-15.23Q629.80-16.48 631.43-17.64L631.43-17.64L631.43-17.64Q633.05-18.79 635.68-19.92L635.68-19.92L635.68-19.92Q638.32-21.05 642.13-22.17L642.13-22.17L642.13-22.17Q645.94-23.28 651.17-24.41L651.17-24.41L651.17-27.85L651.17-27.85Q651.17-31.88 649.38-33.81L649.38-33.81L649.38-33.81Q647.58-35.74 643.71-35.74L643.71-35.74L643.71-35.74Q641.60-35.74 640.12-35.35L640.12-35.35L640.12-35.35Q638.63-34.96 638.05-34.73L638.05-34.73L638.05-27.77L632.23-27.77L632.23-27.77Q631.68-27.77 631.15-27.85L631.15-27.85L631.15-27.85Q630.63-27.93 630.20-28.18L630.20-28.18L630.20-28.18Q629.77-28.44 629.51-28.89L629.51-28.89L629.51-28.89Q629.26-29.34 629.26-30.08L629.26-30.08L629.26-30.08Q629.26-32.54 630.74-34.32L630.74-34.32L630.74-34.32Q632.23-36.09 634.61-37.27L634.61-37.27L634.61-37.27Q636.99-38.44 639.96-38.98L639.96-38.98L639.96-38.98Q642.93-39.53 645.90-39.53L645.90-39.53L645.90-39.53Q649.61-39.53 652.05-38.63L652.05-38.63L652.05-38.63Q654.49-37.73 655.92-36.13L655.92-36.13L655.92-36.13Q657.34-34.53 657.93-32.34L657.93-32.34L657.93-32.34Q658.52-30.16 658.52-27.54L658.52-27.54L658.52-5.12L658.52-5.12Q658.52-4.38 659.00-3.91L659.00-3.91L659.00-3.91Q659.49-3.44 660.20-3.36L660.20-3.36L664.06-3.13L664.06 0zM651.17-7.54L651.17-21.37L651.17-21.37Q645.78-20 642.62-18.67L642.62-18.67L642.62-18.67Q639.45-17.34 637.83-16.00L637.83-16.00L637.83-16.00Q636.21-14.65 635.76-13.26L635.76-13.26L635.76-13.26Q635.31-11.88 635.31-10.39L635.31-10.39L635.31-10.39Q635.31-9.14 635.72-7.95L635.72-7.95L635.72-7.95Q636.13-6.76 636.89-5.82L636.89-5.82L636.89-5.82Q637.66-4.88 638.77-4.32L638.77-4.32L638.77-4.32Q639.88-3.75 641.33-3.75L641.33-3.75L641.33-3.75Q642.93-3.75 644.67-4.34L644.67-4.34L644.67-4.34Q646.41-4.92 647.85-5.63L647.85-5.63L647.85-5.63Q649.53-6.45 651.17-7.54L651.17-7.54"
                        fill="#51cacc" stroke="none" stroke-width="none"
                        transform="translate(-529.2399654388428,20.988417601952175)" style="fill: rgb(222, 157, 214);">
                    </path>
                </g>
                <g class="path"
                    style="transform: scale(0.91); transform-origin: 152.07px 1.71342px; animation: 1s linear -0.279231s infinite normal forwards running breath-b8130eac-556b-46db-9341-c0382ec22985;">
                    <path
                        d="M694.49-11.60L694.49-11.60L694.49-11.60Q694.49-8.67 693.44-6.33L693.44-6.33L693.44-6.33Q692.38-3.98 690.43-2.36L690.43-2.36L690.43-2.36Q688.48-0.74 685.63 0.12L685.63 0.12L685.63 0.12Q682.77 0.98 679.22 0.98L679.22 0.98L679.22 0.98Q677.38 0.98 675.64 0.76L675.64 0.76L675.64 0.76Q673.91 0.55 672.44 0.21L672.44 0.21L672.44 0.21Q670.98-0.12 669.84-0.47L669.84-0.47L669.84-0.47Q668.71-0.82 668.13-1.05L668.13-1.05L668.13-11.68L672.19-11.68L673.16-4.88L673.16-4.88Q674.38-4.10 676.15-3.38L676.15-3.38L676.15-3.38Q677.93-2.66 680.27-2.66L680.27-2.66L680.27-2.66Q681.99-2.66 683.32-3.18L683.32-3.18L683.32-3.18Q684.65-3.71 685.57-4.57L685.57-4.57L685.57-4.57Q686.48-5.43 686.97-6.54L686.97-6.54L686.97-6.54Q687.46-7.66 687.46-8.87L687.46-8.87L687.46-8.87Q687.46-10.43 686.88-11.58L686.88-11.58L686.88-11.58Q686.29-12.73 685.18-13.65L685.18-13.65L685.18-13.65Q684.06-14.57 682.44-15.41L682.44-15.41L682.44-15.41Q680.82-16.25 678.75-17.27L678.75-17.27L677.70-17.77L677.70-17.77Q675.51-18.83 673.83-19.86L673.83-19.86L673.83-19.86Q672.15-20.90 671.00-22.09L671.00-22.09L671.00-22.09Q669.84-23.28 669.26-24.71L669.26-24.71L669.26-24.71Q668.67-26.13 668.67-27.93L668.67-27.93L668.67-27.93Q668.67-30.59 669.63-32.73L669.63-32.73L669.63-32.73Q670.59-34.88 672.42-36.39L672.42-36.39L672.42-36.39Q674.26-37.89 676.93-38.71L676.93-38.71L676.93-38.71Q679.61-39.53 683.09-39.53L683.09-39.53L683.09-39.53Q684.84-39.53 686.45-39.34L686.45-39.34L686.45-39.34Q688.05-39.14 689.38-38.87L689.38-38.87L689.38-38.87Q690.70-38.59 691.72-38.28L691.72-38.28L691.72-38.28Q692.73-37.97 693.32-37.70L693.32-37.70L693.32-28.24L689.14-28.24L688.52-33.83L688.52-33.83Q687.66-34.49 685.98-35.08L685.98-35.08L685.98-35.08Q684.30-35.66 682.42-35.66L682.42-35.66L682.42-35.66Q679.10-35.66 677.52-34.16L677.52-34.16L677.52-34.16Q675.94-32.66 675.94-30.31L675.94-30.31L675.94-30.31Q675.94-28.95 676.39-27.93L676.39-27.93L676.39-27.93Q676.84-26.91 677.87-26.02L677.87-26.02L677.87-26.02Q678.91-25.12 680.63-24.20L680.63-24.20L680.63-24.20Q682.34-23.28 684.88-22.15L684.88-22.15L684.88-22.15Q686.95-21.21 688.71-20.18L688.71-20.18L688.71-20.18Q690.47-19.14 691.76-17.87L691.76-17.87L691.76-17.87Q693.05-16.60 693.77-15.08L693.77-15.08L693.77-15.08Q694.49-13.55 694.49-11.60"
                        fill="#51cacc" stroke="none" stroke-width="none"
                        transform="translate(-529.2399654388428,20.988417601952175)" style="fill: rgb(255, 112, 142);">
                    </path>
                </g>
                <g class="path"
                    style="transform: scale(0.91); transform-origin: 190.625px -8.48658px; animation: 1s linear -0.253846s infinite normal forwards running breath-b8130eac-556b-46db-9341-c0382ec22985;">
                    <path
                        d="M741.29 0L723.48 0L723.48-3.13L726.76-3.36L726.76-3.36Q727.46-3.44 727.99-3.91L727.99-3.91L727.99-3.91Q728.52-4.38 728.52-5.12L728.52-5.12L728.52-25.74L728.52-25.74Q728.52-27.46 728.14-28.91L728.14-28.91L728.14-28.91Q727.77-30.35 726.86-31.41L726.86-31.41L726.86-31.41Q725.94-32.46 724.41-33.07L724.41-33.07L724.41-33.07Q722.89-33.67 720.59-33.67L720.59-33.67L720.59-33.67Q719.53-33.67 718.36-33.50L718.36-33.50L718.36-33.50Q717.19-33.32 716.04-33.01L716.04-33.01L716.04-33.01Q714.88-32.70 713.81-32.27L713.81-32.27L713.81-32.27Q712.73-31.84 711.88-31.37L711.88-31.37L711.88-5.12L711.88-5.12Q711.88-4.38 712.30-3.91L712.30-3.91L712.30-3.91Q712.73-3.44 713.48-3.36L713.48-3.36L716.91-3.13L716.91 0L698.91 0L698.91-3.13L702.73-3.36L702.73-3.36Q703.48-3.44 703.95-3.91L703.95-3.91L703.95-3.91Q704.41-4.38 704.41-5.12L704.41-5.12L704.41-53.20L698.44-53.20L698.44-55.86L708.67-58.95L711.88-58.95L711.88-34.57L711.88-34.57Q712.97-35.23 714.57-36.09L714.57-36.09L714.57-36.09Q716.17-36.95 717.99-37.71L717.99-37.71L717.99-37.71Q719.80-38.48 721.66-39.00L721.66-39.00L721.66-39.00Q723.52-39.53 725.08-39.53L725.08-39.53L725.08-39.53Q727.38-39.53 729.36-38.79L729.36-38.79L729.36-38.79Q731.33-38.05 732.79-36.56L732.79-36.56L732.79-36.56Q734.26-35.08 735.10-32.79L735.10-32.79L735.10-32.79Q735.94-30.51 735.94-27.42L735.94-27.42L735.94-5.12L735.94-5.12Q735.94-4.38 736.46-3.91L736.46-3.91L736.46-3.91Q736.99-3.44 737.70-3.36L737.70-3.36L741.29-3.13L741.29 0"
                        fill="#51cacc" stroke="none" stroke-width="none"
                        transform="translate(-529.2399654388428,20.988417601952175)" style="fill: rgb(81, 202, 204);">
                    </path>
                </g>
                <g class="path"
                    style="transform: scale(0.91); transform-origin: 226.445px -30.7316px; animation: 1s linear -0.228462s infinite normal forwards running breath-b8130eac-556b-46db-9341-c0382ec22985;">
                    <path
                        d="M760.59-51.76L760.59-51.76L760.59-51.76Q760.59-50.74 760.21-49.82L760.21-49.82L760.21-49.82Q759.84-48.91 759.18-48.24L759.18-48.24L759.18-48.24Q758.52-47.58 757.64-47.19L757.64-47.19L757.64-47.19Q756.76-46.80 755.74-46.80L755.74-46.80L755.74-46.80Q754.73-46.80 753.81-47.19L753.81-47.19L753.81-47.19Q752.89-47.58 752.23-48.24L752.23-48.24L752.23-48.24Q751.56-48.91 751.17-49.82L751.17-49.82L751.17-49.82Q750.78-50.74 750.78-51.76L750.78-51.76L750.78-51.76Q750.78-52.77 751.17-53.67L751.17-53.67L751.17-53.67Q751.56-54.57 752.23-55.23L752.23-55.23L752.23-55.23Q752.89-55.90 753.81-56.27L753.81-56.27L753.81-56.27Q754.73-56.64 755.74-56.64L755.74-56.64L755.74-56.64Q756.76-56.64 757.64-56.27L757.64-56.27L757.64-56.27Q758.52-55.90 759.18-55.23L759.18-55.23L759.18-55.23Q759.84-54.57 760.21-53.67L760.21-53.67L760.21-53.67Q760.59-52.77 760.59-51.76"
                        fill="#51cacc" stroke="none" stroke-width="none"
                        transform="translate(-529.2399654388428,20.988417601952175)" style="fill: rgb(157, 248, 113);">
                    </path>
                </g>
                <g class="path"
                    style="transform: scale(0.91); transform-origin: 226.055px 1.22342px; animation: 1s linear -0.203077s infinite normal forwards running breath-b8130eac-556b-46db-9341-c0382ec22985;">
                    <path
                        d="M764.69 0L745.90 0L745.90-3.13L749.80-3.36L749.80-3.36Q750.55-3.44 751.02-3.91L751.02-3.91L751.02-3.91Q751.48-4.38 751.48-5.12L751.48-5.12L751.48-33.67L745.98-33.67L745.98-36.48L755.74-39.53L758.91-39.53L758.91-5.12L758.91-5.12Q758.91-4.38 759.39-3.91L759.39-3.91L759.39-3.91Q759.88-3.44 760.59-3.36L760.59-3.36L764.69-3.13L764.69 0"
                        fill="#51cacc" stroke="none" stroke-width="none"
                        transform="translate(-529.2399654388428,20.988417601952175)" style="fill: rgb(224, 255, 119);">
                    </path>
                </g>
                <g class="path"
                    style="transform: scale(0.91); transform-origin: 254.335px 1.22342px; animation: 1s linear -0.177692s infinite normal forwards running breath-b8130eac-556b-46db-9341-c0382ec22985;">
                    <path
                        d="M797.89-30.39L794.77-30.39L794.77-30.39Q793.98-31.29 792.97-31.93L792.97-31.93L792.97-31.93Q791.95-32.58 790.47-32.58L790.47-32.58L790.47-32.58Q788.52-32.58 786.52-31.27L786.52-31.27L786.52-31.27Q784.53-29.96 782.46-27.62L782.46-27.62L782.46-5.12L782.46-5.12Q782.46-4.38 782.93-3.89L782.93-3.89L782.93-3.89Q783.40-3.40 784.14-3.36L784.14-3.36L789.41-3.13L789.41 0L769.41 0L769.41-3.05L773.36-3.36L773.36-3.36Q774.06-3.44 774.55-3.91L774.55-3.91L774.55-3.91Q775.04-4.38 775.04-5.12L775.04-5.12L775.04-32.89L769.26-32.89L769.26-35.51L779.18-38.55L782.46-38.55L782.46-31.45L782.46-31.45Q783.32-32.38 784.55-33.77L784.55-33.77L784.55-33.77Q785.78-35.16 787.19-36.45L787.19-36.45L787.19-36.45Q788.59-37.73 790.10-38.63L790.10-38.63L790.10-38.63Q791.60-39.53 793.01-39.53L793.01-39.53L793.01-39.53Q793.63-39.53 794.34-39.41L794.34-39.41L794.34-39.41Q795.04-39.30 795.70-39.12L795.70-39.12L795.70-39.12Q796.37-38.95 796.93-38.73L796.93-38.73L796.93-38.73Q797.50-38.52 797.89-38.32L797.89-38.32L797.89-30.39"
                        fill="#51cacc" stroke="none" stroke-width="none"
                        transform="translate(-529.2399654388428,20.988417601952175)" style="fill: rgb(222, 157, 214);">
                    </path>
                </g>
                <g class="path"
                    style="transform: scale(0.91); transform-origin: 326.325px -5.84658px; animation: 1s linear -0.152308s infinite normal forwards running breath-b8130eac-556b-46db-9341-c0382ec22985;">
                    <path
                        d="M873.28-15.04L873.28-15.04L873.28-15.04Q873.28-11.99 872.09-9.06L872.09-9.06L872.09-9.06Q870.90-6.13 868.32-3.83L868.32-3.83L868.32-3.83Q865.74-1.52 861.72-0.12L861.72-0.12L861.72-0.12Q857.70 1.29 852.07 1.29L852.07 1.29L852.07 1.29Q848.79 1.29 846.19 0.82L846.19 0.82L846.19 0.82Q843.59 0.35 841.72-0.20L841.72-0.20L841.72-0.20Q839.57-0.86 837.85-1.68L837.85-1.68L837.85-15.86L842.89-15.86L843.95-6.80L843.95-6.80Q844.02-6.33 844.43-5.78L844.43-5.78L844.43-5.78Q844.84-5.23 845.27-5.04L845.27-5.04L845.94-4.69L845.94-4.69Q846.52-4.41 847.54-4.08L847.54-4.08L847.54-4.08Q848.55-3.75 850.02-3.48L850.02-3.48L850.02-3.48Q851.48-3.20 853.36-3.20L853.36-3.20L853.36-3.20Q855.90-3.20 858.07-3.85L858.07-3.85L858.07-3.85Q860.23-4.49 861.80-5.70L861.80-5.70L861.80-5.70Q863.36-6.91 864.24-8.67L864.24-8.67L864.24-8.67Q865.12-10.43 865.12-12.66L865.12-12.66L865.12-12.66Q865.12-15.08 863.73-16.89L863.73-16.89L863.73-16.89Q862.34-18.71 860.25-20.14L860.25-20.14L860.25-20.14Q858.16-21.56 855.70-22.70L855.70-22.70L855.70-22.70Q853.24-23.83 851.05-24.88L851.05-24.88L851.05-24.88Q848.59-26.05 846.35-27.30L846.35-27.30L846.35-27.30Q844.10-28.55 842.40-30.20L842.40-30.20L842.40-30.20Q840.70-31.84 839.71-34.04L839.71-34.04L839.71-34.04Q838.71-36.25 838.71-39.30L838.71-39.30L838.71-39.30Q838.71-42.85 840.12-45.74L840.12-45.74L840.12-45.74Q841.52-48.63 844.00-50.68L844.00-50.68L844.00-50.68Q846.48-52.73 849.86-53.85L849.86-53.85L849.86-53.85Q853.24-54.96 857.19-54.96L857.19-54.96L857.19-54.96Q859.34-54.96 861.21-54.73L861.21-54.73L861.21-54.73Q863.09-54.49 864.75-54.12L864.75-54.12L864.75-54.12Q866.41-53.75 867.85-53.30L867.85-53.30L867.85-53.30Q869.30-52.85 870.59-52.46L870.59-52.46L871.29-52.23L871.29-39.77L866.72-39.77L865.51-47.42L865.51-47.42Q865.43-47.97 865.02-48.22L865.02-48.22L865.02-48.22Q864.61-48.48 864.26-48.83L864.26-48.83L864.26-48.83Q864.10-48.95 863.63-49.24L863.63-49.24L863.63-49.24Q863.16-49.53 862.32-49.84L862.32-49.84L862.32-49.84Q861.48-50.16 860.23-50.39L860.23-50.39L860.23-50.39Q858.98-50.63 857.30-50.63L857.30-50.63L857.30-50.63Q854.88-50.63 852.97-49.92L852.97-49.92L852.97-49.92Q851.05-49.22 849.73-47.95L849.73-47.95L849.73-47.95Q848.40-46.68 847.68-44.96L847.68-44.96L847.68-44.96Q846.95-43.24 846.95-41.21L846.95-41.21L846.95-41.21Q846.95-39.38 847.68-37.87L847.68-37.87L847.68-37.87Q848.40-36.37 849.82-35.10L849.82-35.10L849.82-35.10Q851.25-33.83 853.32-32.73L853.32-32.73L853.32-32.73Q855.39-31.64 858.09-30.63L858.09-30.63L858.09-30.63Q861.72-29.26 864.55-27.77L864.55-27.77L864.55-27.77Q867.38-26.29 869.32-24.45L869.32-24.45L869.32-24.45Q871.25-22.62 872.27-20.33L872.27-20.33L872.27-20.33Q873.28-18.05 873.28-15.04"
                        fill="#51cacc" stroke="none" stroke-width="none"
                        transform="translate(-529.2399654388428,20.988417601952175)" style="fill: rgb(255, 112, 142);">
                    </path>
                </g>
                <g class="path"
                    style="transform: scale(0.91); transform-origin: 361.56px -2.64158px; animation: 1s linear -0.126923s infinite normal forwards running breath-b8130eac-556b-46db-9341-c0382ec22985;">
                    <path
                        d="M903.05-4.88L903.05-1.68L903.05-1.68Q901.56-0.94 899.80-0.35L899.80-0.35L899.80-0.35Q898.32 0.16 896.37 0.57L896.37 0.57L896.37 0.57Q894.41 0.98 892.27 0.98L892.27 0.98L892.27 0.98Q887.73 0.98 885.70-1.13L885.70-1.13L885.70-1.13Q883.67-3.24 883.67-8.01L883.67-8.01L883.67-34.57L878.55-34.57L878.55-37.19L884.02-39.77L887.62-48.24L891.13-48.24L891.13-38.55L902.42-38.55L902.42-34.57L891.13-34.57L891.13-12.23L891.13-12.23Q891.13-9.84 891.54-8.18L891.54-8.18L891.54-8.18Q891.95-6.52 892.75-5.49L892.75-5.49L892.75-5.49Q893.55-4.45 894.75-3.98L894.75-3.98L894.75-3.98Q895.94-3.52 897.54-3.52L897.54-3.52L897.54-3.52Q898.71-3.52 899.71-3.71L899.71-3.71L899.71-3.71Q900.70-3.91 901.45-4.18L901.45-4.18L901.45-4.18Q902.30-4.49 903.05-4.88L903.05-4.88"
                        fill="#51cacc" stroke="none" stroke-width="none"
                        transform="translate(-529.2399654388428,20.988417601952175)" style="fill: rgb(81, 202, 204);">
                    </path>
                </g>
                <g class="path"
                    style="transform: scale(0.91); transform-origin: 397.105px 1.71342px; animation: 1s linear -0.101538s infinite normal forwards running breath-b8130eac-556b-46db-9341-c0382ec22985;">
                    <path
                        d="M947.42 0L934.73 0L934.73-4.57L934.73-4.57Q933.71-3.79 932.25-2.81L932.25-2.81L932.25-2.81Q930.78-1.84 929.08-1.00L929.08-1.00L929.08-1.00Q927.38-0.16 925.53 0.41L925.53 0.41L925.53 0.41Q923.67 0.98 921.91 0.98L921.91 0.98L921.91 0.98Q919.34 0.98 917.29 0.21L917.29 0.21L917.29 0.21Q915.23-0.55 913.81-2.13L913.81-2.13L913.81-2.13Q912.38-3.71 911.62-6.15L911.62-6.15L911.62-6.15Q910.86-8.59 910.86-11.99L910.86-11.99L910.86-33.67L905.27-33.67L905.27-36.41L915.12-39.53L918.32-39.53L918.32-13.52L918.32-13.52Q918.32-11.41 918.73-9.73L918.73-9.73L918.73-9.73Q919.14-8.05 920.06-6.88L920.06-6.88L920.06-6.88Q920.98-5.70 922.46-5.10L922.46-5.10L922.46-5.10Q923.95-4.49 926.05-4.49L926.05-4.49L926.05-4.49Q927.27-4.49 928.52-4.73L928.52-4.73L928.52-4.73Q929.77-4.96 930.90-5.33L930.90-5.33L930.90-5.33Q932.03-5.70 933.03-6.11L933.03-6.11L933.03-6.11Q934.02-6.52 934.73-6.88L934.73-6.88L934.73-33.67L929.10-33.67L929.10-36.41L938.87-39.53L942.15-39.53L942.15-5.12L942.15-5.12Q942.15-4.38 942.68-3.91L942.68-3.91L942.68-3.91Q943.20-3.44 943.91-3.36L943.91-3.36L947.42-3.13L947.42 0"
                        fill="#51cacc" stroke="none" stroke-width="none"
                        transform="translate(-529.2399654388428,20.988417601952175)" style="fill: rgb(157, 248, 113);">
                    </path>
                </g>
                <g class="path"
                    style="transform: scale(0.91); transform-origin: 442.755px -7.99658px; animation: 1s linear -0.0761538s infinite normal forwards running breath-b8130eac-556b-46db-9341-c0382ec22985;">
                    <path
                        d="M992.15 0L979.57 0L979.57-4.26L979.57-4.26Q978.20-3.20 976.74-2.25L976.74-2.25L976.74-2.25Q975.27-1.29 973.73-0.59L973.73-0.59L973.73-0.59Q972.19 0.12 970.57 0.55L970.57 0.55L970.57 0.55Q968.95 0.98 967.19 0.98L967.19 0.98L967.19 0.98Q963.16 0.98 960.25-0.76L960.25-0.76L960.25-0.76Q957.34-2.50 955.47-5.25L955.47-5.25L955.47-5.25Q953.59-8.01 952.71-11.43L952.71-11.43L952.71-11.43Q951.84-14.84 951.84-18.24L951.84-18.24L951.84-18.24Q951.84-22.30 953.09-26.15L953.09-26.15L953.09-26.15Q954.34-30 956.88-32.97L956.88-32.97L956.88-32.97Q959.41-35.94 963.24-37.73L963.24-37.73L963.24-37.73Q967.07-39.53 972.23-39.53L972.23-39.53L972.23-39.53Q973.16-39.53 974.26-39.41L974.26-39.41L974.26-39.41Q975.35-39.30 976.39-39.16L976.39-39.16L976.39-39.16Q977.42-39.02 978.26-38.85L978.26-38.85L978.26-38.85Q979.10-38.67 979.57-38.55L979.57-38.55L979.57-53.20L973.52-53.20L973.52-55.86L983.83-58.95L987.03-58.95L987.03-5.12L987.03-5.12Q987.03-4.38 987.50-3.91L987.50-3.91L987.50-3.91Q987.97-3.44 988.71-3.36L988.71-3.36L992.15-3.13L992.15 0zM979.57-7.27L979.57-34.49L979.57-34.49Q979.06-34.65 978.26-34.86L978.26-34.86L978.26-34.86Q977.46-35.08 976.54-35.25L976.54-35.25L976.54-35.25Q975.63-35.43 974.63-35.55L974.63-35.55L974.63-35.55Q973.63-35.66 972.77-35.66L972.77-35.66L972.77-35.66Q969.80-35.66 967.38-34.51L967.38-34.51L967.38-34.51Q964.96-33.36 963.26-31.27L963.26-31.27L963.26-31.27Q961.56-29.18 960.64-26.21L960.64-26.21L960.64-26.21Q959.73-23.24 959.73-19.61L959.73-19.61L959.73-19.61Q959.73-16.33 960.51-13.57L960.51-13.57L960.51-13.57Q961.29-10.82 962.77-8.79L962.77-8.79L962.77-8.79Q964.26-6.76 966.41-5.63L966.41-5.63L966.41-5.63Q968.55-4.49 971.33-4.49L971.33-4.49L971.33-4.49Q972.54-4.49 973.67-4.75L973.67-4.75L973.67-4.75Q974.80-5 975.86-5.41L975.86-5.41L975.86-5.41Q976.91-5.82 977.85-6.31L977.85-6.31L977.85-6.31Q978.79-6.80 979.57-7.27L979.57-7.27"
                        fill="#51cacc" stroke="none" stroke-width="none"
                        transform="translate(-529.2399654388428,20.988417601952175)" style="fill: rgb(224, 255, 119);">
                    </path>
                </g>
                <g class="path"
                    style="transform: scale(0.91); transform-origin: 477.5px -30.7316px; animation: 1s linear -0.0507692s infinite normal forwards running breath-b8130eac-556b-46db-9341-c0382ec22985;">
                    <path
                        d="M1011.64-51.76L1011.64-51.76L1011.64-51.76Q1011.64-50.74 1011.27-49.82L1011.27-49.82L1011.27-49.82Q1010.90-48.91 1010.23-48.24L1010.23-48.24L1010.23-48.24Q1009.57-47.58 1008.69-47.19L1008.69-47.19L1008.69-47.19Q1007.81-46.80 1006.80-46.80L1006.80-46.80L1006.80-46.80Q1005.78-46.80 1004.86-47.19L1004.86-47.19L1004.86-47.19Q1003.95-47.58 1003.28-48.24L1003.28-48.24L1003.28-48.24Q1002.62-48.91 1002.23-49.82L1002.23-49.82L1002.23-49.82Q1001.84-50.74 1001.84-51.76L1001.84-51.76L1001.84-51.76Q1001.84-52.77 1002.23-53.67L1002.23-53.67L1002.23-53.67Q1002.62-54.57 1003.28-55.23L1003.28-55.23L1003.28-55.23Q1003.95-55.90 1004.86-56.27L1004.86-56.27L1004.86-56.27Q1005.78-56.64 1006.80-56.64L1006.80-56.64L1006.80-56.64Q1007.81-56.64 1008.69-56.27L1008.69-56.27L1008.69-56.27Q1009.57-55.90 1010.23-55.23L1010.23-55.23L1010.23-55.23Q1010.90-54.57 1011.27-53.67L1011.27-53.67L1011.27-53.67Q1011.64-52.77 1011.64-51.76"
                        fill="#51cacc" stroke="none" stroke-width="none"
                        transform="translate(-529.2399654388428,20.988417601952175)" style="fill: rgb(222, 157, 214);">
                    </path>
                </g>
                <g class="path"
                    style="transform: scale(0.91); transform-origin: 477.105px 1.22342px; animation: 1s linear -0.0253846s infinite normal forwards running breath-b8130eac-556b-46db-9341-c0382ec22985;">
                    <path
                        d="M1015.74 0L996.95 0L996.95-3.13L1000.86-3.36L1000.86-3.36Q1001.60-3.44 1002.07-3.91L1002.07-3.91L1002.07-3.91Q1002.54-4.38 1002.54-5.12L1002.54-5.12L1002.54-33.67L997.03-33.67L997.03-36.48L1006.80-39.53L1009.96-39.53L1009.96-5.12L1009.96-5.12Q1009.96-4.38 1010.45-3.91L1010.45-3.91L1010.45-3.91Q1010.94-3.44 1011.64-3.36L1011.64-3.36L1015.74-3.13L1015.74 0"
                        fill="#51cacc" stroke="none" stroke-width="none"
                        transform="translate(-529.2399654388428,20.988417601952175)" style="fill: rgb(255, 112, 142);">
                    </path>
                </g>
                <g class="path"
                    style="transform: scale(0.91); transform-origin: 510.995px 1.71342px; animation: 1s linear 0s infinite normal forwards running breath-b8130eac-556b-46db-9341-c0382ec22985;">
                    <path
                        d="M1059.26-19.22L1059.26-19.22L1059.26-19.22Q1059.26-14.96 1057.91-11.27L1057.91-11.27L1057.91-11.27Q1056.56-7.58 1054.08-4.86L1054.08-4.86L1054.08-4.86Q1051.60-2.15 1048.07-0.59L1048.07-0.59L1048.07-0.59Q1044.53 0.98 1040.16 0.98L1040.16 0.98L1040.16 0.98Q1035.78 0.98 1032.27-0.57L1032.27-0.57L1032.27-0.57Q1028.75-2.11 1026.29-4.80L1026.29-4.80L1026.29-4.80Q1023.83-7.50 1022.52-11.19L1022.52-11.19L1022.52-11.19Q1021.21-14.88 1021.21-19.22L1021.21-19.22L1021.21-19.22Q1021.21-23.48 1022.54-27.19L1022.54-27.19L1022.54-27.19Q1023.87-30.90 1026.37-33.65L1026.37-33.65L1026.37-33.65Q1028.87-36.41 1032.40-37.97L1032.40-37.97L1032.40-37.97Q1035.94-39.53 1040.39-39.53L1040.39-39.53L1040.39-39.53Q1044.84-39.53 1048.36-37.93L1048.36-37.93L1048.36-37.93Q1051.88-36.33 1054.30-33.57L1054.30-33.57L1054.30-33.57Q1056.72-30.82 1057.99-27.13L1057.99-27.13L1057.99-27.13Q1059.26-23.44 1059.26-19.22zM1050.94-19.30L1050.94-19.30L1050.94-19.30Q1050.94-22.58 1050.29-25.59L1050.29-25.59L1050.29-25.59Q1049.65-28.59 1048.32-30.90L1048.32-30.90L1048.32-30.90Q1046.99-33.20 1045-34.57L1045-34.57L1045-34.57Q1043.01-35.94 1040.31-35.94L1040.31-35.94L1040.31-35.94Q1037.54-35.94 1035.51-34.57L1035.51-34.57L1035.51-34.57Q1033.48-33.20 1032.17-30.90L1032.17-30.90L1032.17-30.90Q1030.86-28.59 1030.23-25.59L1030.23-25.59L1030.23-25.59Q1029.61-22.58 1029.61-19.30L1029.61-19.30L1029.61-19.30Q1029.61-16.05 1030.25-13.05L1030.25-13.05L1030.25-13.05Q1030.90-10.04 1032.23-7.73L1032.23-7.73L1032.23-7.73Q1033.55-5.43 1035.55-4.04L1035.55-4.04L1035.55-4.04Q1037.54-2.66 1040.23-2.66L1040.23-2.66L1040.23-2.66Q1042.97-2.66 1045-4.02L1045-4.02L1045-4.02Q1047.03-5.39 1048.34-7.70L1048.34-7.70L1048.34-7.70Q1049.65-10 1050.29-13.01L1050.29-13.01L1050.29-13.01Q1050.94-16.02 1050.94-19.30"
                        fill="#51cacc" stroke="none" stroke-width="none"
                        transform="translate(-529.2399654388428,20.988417601952175)" style="fill: rgb(81, 202, 204);">
                    </path>
                </g>
            </g>
        </g>
    </g>
    <style id="breath-28d65dfe-b3ad-4f94-954d-393f132bfdf9" data-anikit="">
        @keyframes breath-b8130eac-556b-46db-9341-c0382ec22985 {
            0% {
                animation-timing-function: cubic-bezier(0.9647, 0.2413, -0.0705, 0.7911);
                transform: scale(0.9099999999999999);
            }

            51% {
                animation-timing-function: cubic-bezier(0.9226, 0.2631, -0.0308, 0.7628);
                transform: scale(1.02994);
            }

            100% {
                transform: scale(0.9099999999999999);
            }
        }
    </style>
</svg>